<?xml version="1.0" encoding="utf-8"?>
<!-- Generator: Adobe Illustrator 26.0.1, SVG Export Plug-In . SVG Version: 6.00 Build 0)  -->
<svg version="1.1" id="Layer_1" xmlns="http://www.w3.org/2000/svg" xmlns:xlink="http://www.w3.org/1999/xlink" x="0px" y="0px"
	 viewBox="0 0 595.3 841.9" style="enable-background:new 0 0 595.3 841.9;" xml:space="preserve">
<style type="text/css">
	.st0{fill-rule:evenodd;clip-rule:evenodd;fill:#FF9900;}
	.st1{fill-rule:evenodd;clip-rule:evenodd;}
</style>
<g>
	<path class="st0" d="M307.4,309.8c-12.6,8.7-31,13.3-46.9,13.3c-22.2,0-42.1-7.6-57.3-20.3c-1.1-1-0.2-2.3,1.3-1.6
		c16.3,8.8,36.5,14.1,57.3,14.1c14,0,29.5-2.7,43.7-8.3C307.8,306.2,309.5,308.3,307.4,309.8L307.4,309.8z"/>
	<path class="st0" d="M312.7,304.1c-1.6-1.9-10.7-0.9-14.8-0.4c-1.2,0.1-1.5-0.9-0.3-1.6c7.3-4.8,19.2-3.3,20.5-1.8
		s-0.4,12.7-7.2,17.9c-1.1,0.8-2.1,0.4-1.6-0.7C310.9,314,314.3,306.1,312.7,304.1z"/>
	<path class="st1" d="M298.2,268.7v-4.6c0-0.7,0.5-1.1,1.2-1.1h22.2c0.7,0,1.3,0.5,1.3,1.1v3.9c0,0.6-0.6,1.5-1.7,2.9l-11.5,15.2
		c4.3-0.1,8.8,0.5,12.6,2.5c0.8,0.4,1.1,1.1,1.1,1.8v4.9c0,0.7-0.8,1.5-1.6,1.1c-6.8-3.3-15.9-3.7-23.4,0.1
		c-0.8,0.4-1.6-0.4-1.6-1.1v-4.7c0-0.7,0-2,0.8-3.1l13.3-17.7h-11.6C298.8,269.9,298.2,269.4,298.2,268.7L298.2,268.7z M217.2,297.4
		h-6.7c-0.6-0.1-1.1-0.5-1.2-1.1v-32.2c0-0.6,0.6-1.1,1.3-1.1h6.3c0.7,0,1.1,0.5,1.2,1.1v4.2h0.2c1.6-4.1,4.8-6,8.9-6
		c4.2,0,6.9,1.9,8.7,6c1.6-4.1,5.4-6,9.3-6c2.8,0,5.9,1.1,7.8,3.6c2.1,2.7,1.7,6.6,1.7,10.1v20.3c0,0.6-0.6,1.1-1.3,1.1h-6.7
		c-0.7-0.1-1.2-0.6-1.2-1.1v-17.1c0-1.4,0.2-4.8-0.2-6c-0.5-2.1-2-2.8-4-2.8c-1.6,0-3.4,1-4.1,2.6s-0.6,4.3-0.6,6.2v17.1
		c0,0.6-0.6,1.1-1.3,1.1h-6.7c-0.7-0.1-1.2-0.6-1.2-1.1v-17.1c0-3.6,0.6-8.9-4.1-8.9c-4.8,0-4.7,5.1-4.7,8.9v17.1
		C218.5,296.9,218,297.4,217.2,297.4L217.2,297.4z M342.1,262.3c10,0,15.5,8,15.5,18.1c0,9.8-6,17.6-15.5,17.6
		c-9.8,0-15.2-8-15.2-17.9C326.8,270.1,332.3,262.3,342.1,262.3L342.1,262.3z M342.1,268.9c-5,0-5.3,6.3-5.3,10.2
		c0,3.9-0.1,12.3,5.2,12.3c5.2,0,5.5-6.8,5.5-10.9c0-2.7-0.2-6-1-8.5C345.8,269.8,344.2,268.9,342.1,268.9L342.1,268.9z
		 M370.5,297.4h-6.7c-0.7-0.1-1.2-0.6-1.2-1.1V264c0.1-0.6,0.6-1.1,1.3-1.1h6.3c0.6,0,1.1,0.4,1.2,0.9v4.9h0.2
		c1.9-4.4,4.5-6.5,9.2-6.5c3,0,6,1,7.9,3.8c1.8,2.6,1.8,6.9,1.8,10v20.3c-0.1,0.6-0.6,1-1.3,1h-6.7c-0.6-0.1-1.1-0.5-1.2-1v-17.5
		c0-3.6,0.5-8.7-4.2-8.7c-1.6,0-3.1,1-3.9,2.6c-0.9,2-1.1,3.9-1.1,6.1v17.4C371.8,296.9,371.2,297.4,370.5,297.4L370.5,297.4z
		 M280.5,282c0,2.4,0.1,4.5-1.2,6.7c-1.1,1.8-2.8,2.8-4.7,2.8c-2.6,0-4.1-1.8-4.1-4.6c0-5.3,5.1-6.3,10-6.3V282z M287.3,297.3
		c-0.5,0.4-1.1,0.4-1.6,0.1c-2.2-1.7-2.7-2.6-3.9-4.2c-3.7,3.5-6.4,4.6-11.1,4.6c-5.7,0-10.1-3.3-10.1-9.7c0-5.1,3-8.5,7.2-10.2
		c3.7-1.5,8.8-1.8,12.7-2.2v-0.8c0-1.5,0.2-3.3-0.8-4.6c-0.8-1.1-2.4-1.6-3.8-1.6c-2.6,0-4.9,1.2-5.4,3.8c-0.2,0.6-0.5,1.1-1.1,1.1
		l-6.5-0.6c-0.5-0.1-1.1-0.5-1-1.3c1.5-7.4,8.7-9.6,15.1-9.6c3.3,0,7.6,0.8,10.2,3.1c3.3,2.8,3,6.7,3,10.8v9.7
		c0,2.9,1.3,4.2,2.5,5.8c0.5,0.6,0.5,1.3,0,1.6C291.1,294.3,288.7,296.2,287.3,297.3L287.3,297.3z M192,282c0,2.4,0.1,4.5-1.2,6.7
		c-1.1,1.8-2.8,2.8-4.7,2.8c-2.6,0-4.1-1.8-4.1-4.6c0-5.3,5.1-6.3,10-6.3V282z M198.7,297.3c-0.5,0.4-1.1,0.4-1.6,0.1
		c-2.2-1.7-2.7-2.6-3.9-4.2c-3.7,3.5-6.4,4.6-11.1,4.6c-5.7,0-10.1-3.3-10.1-9.7c0-5.1,3-8.5,7.2-10.2c3.7-1.5,8.8-1.8,12.7-2.2
		v-0.8c0-1.5,0.2-3.3-0.8-4.6c-0.8-1.1-2.4-1.6-3.8-1.6c-2.6,0-4.9,1.2-5.4,3.8c-0.2,0.6-0.5,1.1-1.1,1.1l-6.5-0.6
		c-0.5-0.1-1.1-0.5-1-1.3c1.5-7.4,8.7-9.6,15.1-9.6c3.3,0,7.6,0.8,10.2,3.1c3.3,2.8,3,6.7,3,10.8v9.7c0,2.9,1.3,4.2,2.5,5.8
		c0.5,0.6,0.5,1.3,0,1.6C202.6,294.3,200.1,296.2,198.7,297.3L198.7,297.3z"/>
</g>
</svg>
